<?xml version="1.0" encoding="iso-8859-1"?>
<!-- Generator: Adobe Illustrator 19.0.0, SVG Export Plug-In . SVG Version: 6.00 Build 0)  -->
<svg version="1.1" id="Capa_1" xmlns="http://www.w3.org/2000/svg" xmlns:xlink="http://www.w3.org/1999/xlink" x="0px" y="0px"
	 viewBox="0 0 512 512" style="enable-background:new 0 0 512 512;" xml:space="preserve">
<g>
	<g>
		<g>
			<path d="M460.8,17.067H143.497C139.893,6.875,130.277,0.045,119.467,0H51.2C37.062,0,25.6,11.461,25.6,25.6v460.8
				c0,14.138,11.462,25.6,25.6,25.6h68.267c10.81-0.045,20.427-6.875,24.03-17.067H460.8c14.138,0,25.6-11.461,25.6-25.6V42.667
				C486.4,28.528,474.938,17.067,460.8,17.067z M128,486.4c0,4.713-3.821,8.533-8.533,8.533H51.2c-4.713,0-8.533-3.82-8.533-8.533
				v-44.237c2.733,1.011,5.62,1.542,8.533,1.57h68.267c2.914-0.028,5.8-0.559,8.533-1.57V486.4z M128,418.133
				c0,4.713-3.821,8.533-8.533,8.533H51.2c-4.713,0-8.533-3.82-8.533-8.533v-68.267v-76.8H128V418.133z M128,256H42.667v-85.333H128
				V256z M128,153.6H42.667v-128c0-4.713,3.82-8.533,8.533-8.533h68.267c4.713,0,8.533,3.82,8.533,8.533V153.6z M145.067,179.2
				h141.978l40.96,34.133l-40.96,34.133H145.067V179.2z M469.333,443.733h-51.2c-4.713,0-8.533,3.821-8.533,8.533
				c0,4.713,3.82,8.533,8.533,8.533h51.2v8.533c0,4.713-3.821,8.533-8.533,8.533H145.067v-51.2H460.8
				c2.914-0.028,5.801-0.559,8.533-1.57V443.733z M469.333,392.533v8.533c0,4.713-3.821,8.533-8.533,8.533h-64.734l73.267-73.267
				V392.533z M469.333,312.201l-97.4,97.399H145.067V264.533h145.067c1.999,0.001,3.935-0.7,5.47-1.98l51.2-42.667
				c1.944-1.621,3.068-4.022,3.068-6.554s-1.124-4.932-3.068-6.554l-51.2-42.667c-1.535-1.28-3.471-1.981-5.47-1.98H145.067v-128
				h226.867l97.4,97.399V312.201z M469.333,107.401l-73.267-73.267H460.8c4.713,0,8.533,3.82,8.533,8.533V107.401z"/>
			<path d="M264.533,196.267c-4.713,0-8.533,3.82-8.533,8.533v17.067c0,4.713,3.82,8.533,8.533,8.533s8.533-3.82,8.533-8.533V204.8
				C273.067,200.087,269.246,196.267,264.533,196.267z"/>
			<path d="M384,443.733H196.267c-4.713,0-8.533,3.821-8.533,8.533c0,4.713,3.82,8.533,8.533,8.533H384
				c4.713,0,8.533-3.821,8.533-8.533C392.533,447.554,388.713,443.733,384,443.733z"/>
			<path d="M93.867,460.8H76.8c-4.713,0-8.533,3.82-8.533,8.533s3.82,8.533,8.533,8.533h17.067c4.713,0,8.533-3.82,8.533-8.533
				S98.579,460.8,93.867,460.8z"/>
		</g>
	</g>
</g>
<g>
</g>
<g>
</g>
<g>
</g>
<g>
</g>
<g>
</g>
<g>
</g>
<g>
</g>
<g>
</g>
<g>
</g>
<g>
</g>
<g>
</g>
<g>
</g>
<g>
</g>
<g>
</g>
<g>
</g>
</svg>
